<?xml version="1.0" encoding="UTF-8"?>
<svg id="Ebene_1" data-name="Ebene 1" xmlns="http://www.w3.org/2000/svg" xmlns:xlink="http://www.w3.org/1999/xlink" viewBox="0 0 389.8 68.94">
  <defs>
    <style>
      .cls-1 {
        clip-path: url(#clippath);
      }

      .cls-2 {
        fill: none;
      }

      .cls-2, .cls-3, .cls-4 {
        stroke-width: 0px;
      }

      .cls-5 {
        clip-path: url(#clippath-1);
      }

      .cls-3 {
        fill: #495cae;
      }

      .cls-4 {
        fill: #fff;
      }
    </style>
    <clipPath id="clippath">
      <rect class="cls-2" width="76.71" height="43.24"/>
    </clipPath>
    <clipPath id="clippath-1">
      <rect class="cls-2" x="37.61" y="18.05" width="75.47" height="43.24"/>
    </clipPath>
  </defs>
  <path class="cls-4" d="M160.23,15.97v25.65h-4.88l-12.79-15.58v15.58h-5.85V15.97h4.92l12.75,15.56v-15.56h5.85Z"/>
  <path class="cls-4" d="M182.98,42.06c-3.67,0-6.52-1.01-8.56-3.04-2.04-2.03-3.06-4.92-3.06-8.69v-14.35h5.94v14.15c0,4.58,1.91,6.88,5.73,6.88,1.84,0,3.26-.55,4.23-1.67.98-1.11,1.48-2.84,1.48-5.21v-14.15h5.88v14.35c0,3.77-1.02,6.66-3.06,8.69-2.04,2.03-4.9,3.04-8.56,3.04Z"/>
  <path class="cls-4" d="M229.25,15.97v25.65h-4.88l-12.79-15.58v15.58h-5.85V15.97h4.92l12.75,15.56v-15.56h5.85Z"/>
  <path class="cls-4" d="M253.03,42.06c-2.66,0-5.05-.57-7.19-1.71-2.14-1.15-3.81-2.73-5.02-4.75-1.21-2.01-1.81-4.28-1.81-6.81s.6-4.78,1.81-6.79c1.21-2.01,2.88-3.59,5.02-4.73,2.14-1.15,4.53-1.73,7.19-1.73s5.06.58,7.19,1.73c2.13,1.14,3.8,2.72,5.02,4.73,1.22,2.02,1.83,4.28,1.83,6.79s-.61,4.8-1.83,6.81c-1.22,2.02-2.9,3.6-5.02,4.75-2.13,1.14-4.52,1.71-7.19,1.71ZM253.03,36.99c1.51,0,2.88-.34,4.1-1.04,1.22-.69,2.18-1.66,2.88-2.9.71-1.25,1.06-2.67,1.06-4.27s-.35-2.99-1.06-4.23c-.7-1.25-1.66-2.22-2.88-2.92-1.22-.71-2.59-1.06-4.1-1.06s-2.89.35-4.1,1.06c-1.22.7-2.18,1.67-2.88,2.92-.7,1.24-1.04,2.65-1.04,4.23s.34,3.02,1.04,4.27c.69,1.24,1.65,2.2,2.88,2.9,1.22.7,2.59,1.04,4.1,1.04Z"/>
  <path class="cls-4" d="M285.25,42.06c-2.03,0-3.99-.27-5.9-.81-1.89-.55-3.41-1.27-4.56-2.15l2.02-4.48c1.09.81,2.4,1.45,3.92,1.94,1.51.49,3.03.73,4.54.73,1.69,0,2.94-.25,3.75-.75.8-.5,1.21-1.16,1.21-1.98,0-.61-.24-1.11-.73-1.52-.47-.42-1.08-.74-1.83-.98-.74-.25-1.74-.52-3.02-.81-1.95-.46-3.54-.92-4.79-1.38-1.25-.47-2.32-1.22-3.21-2.25-.89-1.03-1.33-2.4-1.33-4.1,0-1.48.4-2.83,1.21-4.04.8-1.21,2.02-2.17,3.65-2.88s3.61-1.06,5.96-1.06c1.64,0,3.23.2,4.79.58,1.57.39,2.94.95,4.1,1.69l-1.83,4.5c-2.36-1.34-4.73-2.02-7.1-2.02-1.67,0-2.9.27-3.69.81s-1.19,1.25-1.19,2.13.46,1.53,1.38,1.96c.92.43,2.31.85,4.19,1.27,1.96.46,3.56.93,4.81,1.4,1.25.46,2.32,1.19,3.21,2.19.89,1,1.33,2.35,1.33,4.06,0,1.47-.41,2.81-1.23,4.02-.82,1.21-2.05,2.17-3.69,2.88-1.64.71-3.63,1.06-5.96,1.06Z"/>
  <path class="cls-4" d="M317.87,42.06c-2.66,0-5.05-.57-7.19-1.71-2.14-1.15-3.81-2.73-5.02-4.75-1.21-2.01-1.81-4.28-1.81-6.81s.6-4.78,1.81-6.79c1.21-2.01,2.88-3.59,5.02-4.73,2.14-1.15,4.53-1.73,7.19-1.73s5.06.58,7.19,1.73c2.13,1.14,3.8,2.72,5.02,4.73,1.22,2.02,1.83,4.28,1.83,6.79s-.61,4.8-1.83,6.81c-1.22,2.02-2.9,3.6-5.02,4.75-2.13,1.14-4.52,1.71-7.19,1.71ZM317.87,36.99c1.51,0,2.88-.34,4.1-1.04,1.22-.69,2.18-1.66,2.88-2.9.71-1.25,1.06-2.67,1.06-4.27s-.35-2.99-1.06-4.23c-.7-1.25-1.66-2.22-2.88-2.92-1.22-.71-2.59-1.06-4.1-1.06s-2.89.35-4.1,1.06c-1.22.7-2.18,1.67-2.88,2.92-.7,1.24-1.04,2.65-1.04,4.23s.34,3.02,1.04,4.27c.69,1.24,1.65,2.2,2.88,2.9,1.22.7,2.59,1.04,4.1,1.04Z"/>
  <path class="cls-4" d="M347.59,20.72v6.79h11.88v4.75h-11.88v9.35h-5.94V15.97h19.4v4.75h-13.46Z"/>
  <path class="cls-4" d="M375.65,20.81h-8.21v-4.83h22.35v4.83h-8.21v20.81h-5.94v-20.81Z"/>
  <g class="cls-1">
    <path class="cls-4" d="M64.36,32.43l12.11-12.11-15.15-15.15c-6.48-6.48-16.98-6.48-23.46,0L0,43.02l24.34.18,25.39-25.4,14.63,14.63Z"/>
  </g>
  <g class="cls-5">
    <path class="cls-3" d="M89.44,18.22l-25.08,25.08-14.48-14.48-12.11,12.11,15.77,15.76c5.9,5.9,15.46,5.9,21.36,0l38.3-38.3-23.76-.18Z"/>
  </g>
  <path class="cls-3" d="M193.9,54.3c.93,0,1.8.12,2.6.35.8.22,1.51.52,2.1.9.61.36,1.09.76,1.46,1.19l-1.44,1.54c-.66-.54-1.38-.98-2.17-1.31-.79-.34-1.65-.52-2.56-.52-1.11,0-2.11.23-3,.69-.89.45-1.6,1.06-2.13,1.83-.52.77-.77,1.64-.77,2.6,0,1.11.27,2.06.81,2.83.55.78,1.28,1.38,2.17,1.79.89.41,1.84.6,2.88.6.92,0,1.76-.14,2.52-.42.78-.28,1.4-.65,1.85-1.1.46-.47.69-1.01.69-1.63h-5.06v-2.15h7.38c.03.18.05.36.06.54.03.18.04.35.04.52,0,.74-.12,1.45-.35,2.15-.24.68-.56,1.27-.96,1.75-.63.78-1.49,1.39-2.58,1.83-1.08.43-2.33.65-3.73.65-1.08,0-2.11-.17-3.08-.5-.97-.34-1.83-.84-2.56-1.48-.74-.65-1.32-1.43-1.75-2.33-.42-.9-.63-1.92-.63-3.06,0-1.03.21-1.98.63-2.85.42-.89.99-1.66,1.73-2.31.75-.67,1.63-1.18,2.63-1.54,1-.38,2.07-.56,3.23-.56Z"/>
  <path class="cls-3" d="M233.43,68.74l-1.54-3.44h-7.35l-1.52,3.44h-2.29l6.33-14.31h2.44l6.33,14.31h-2.4ZM227.1,59.49l-1.6,3.69h5.46l-1.67-3.77c-.38-.84-.74-1.74-1.08-2.69-.17.5-.35.99-.54,1.46-.18.46-.37.9-.56,1.31Z"/>
  <path class="cls-3" d="M258.58,54.42l5.52,7.63,5.52-7.63h2.13v14.31h-2.21v-6c0-.88.01-1.7.04-2.48.03-.79.09-1.57.19-2.35l-5.04,6.73h-1.35l-4.96-6.71c.09.77.15,1.54.17,2.33.03.78.04,1.6.04,2.48v6h-2.21v-14.31h2.17Z"/>
  <path class="cls-3" d="M294.01,54.42h10.63v2.13h-8.42v3.77h7.29v2.15h-7.29v4.15h8.42v2.13h-10.63v-14.31Z"/>
  <path class="cls-3" d="M326.86,64.36c.71.83,1.44,1.48,2.21,1.94.78.45,1.73.67,2.85.67.59,0,1.17-.07,1.71-.23.55-.17,1.01-.41,1.38-.73.36-.32.54-.72.54-1.21,0-.68-.36-1.17-1.08-1.46-.72-.3-1.74-.55-3.04-.75-1.61-.23-2.9-.69-3.85-1.35-.95-.67-1.42-1.63-1.42-2.9,0-.86.25-1.59.75-2.21.51-.61,1.21-1.08,2.08-1.42s1.84-.5,2.9-.5c1.3,0,2.43.22,3.38.67.96.43,1.71,1.05,2.27,1.85l-1.52,1.56c-.45-.63-1.03-1.13-1.75-1.52-.71-.39-1.52-.58-2.44-.58s-1.76.18-2.4.52c-.64.35-.96.83-.96,1.46,0,.74.34,1.27,1.02,1.58.69.31,1.59.54,2.71.71.73.11,1.44.26,2.13.44.68.18,1.28.42,1.81.71.53.29.94.67,1.25,1.13.32.45.48,1,.48,1.67,0,.92-.24,1.72-.73,2.4-.49.68-1.19,1.21-2.1,1.58-.91.38-1.97.56-3.21.56-1.33,0-2.54-.21-3.6-.65-1.06-.44-1.99-1.16-2.79-2.15l1.44-1.79Z"/>
</svg>