<?xml version="1.0" encoding="UTF-8"?>
<svg id="Ebene_1" data-name="Ebene 1" xmlns="http://www.w3.org/2000/svg" xmlns:xlink="http://www.w3.org/1999/xlink" viewBox="0 0 389.74 68.36">
  <defs>
    <style>
      .cls-1 {
        clip-path: url(#clippath);
      }

      .cls-2 {
        fill: none;
      }

      .cls-2, .cls-3, .cls-4 {
        stroke-width: 0px;
      }

      .cls-5 {
        clip-path: url(#clippath-1);
      }

      .cls-3 {
        fill: #40bcd8;
      }

      .cls-4 {
        fill: #fff;
      }
    </style>
    <clipPath id="clippath">
      <rect class="cls-2" width="77.26" height="43.25"/>
    </clipPath>
    <clipPath id="clippath-1">
      <rect class="cls-2" x="38" y="17.88" width="75.89" height="43.45"/>
    </clipPath>
  </defs>
  <g class="cls-1">
    <path class="cls-4" d="M64.81,32.36l12.2-12.2-15.26-15.26c-6.52-6.52-17.1-6.52-23.63,0L0,43.03l24.52.18,25.57-25.57,14.72,14.73Z"/>
  </g>
  <g class="cls-5">
    <path class="cls-3" d="M90.07,18.06l-25.26,25.26-14.58-14.58-12.2,12.2,15.88,15.88c5.94,5.94,15.57,5.94,21.52,0l38.58-38.57-23.93-.18Z"/>
  </g>
  <path class="cls-4" d="M160.17,15.39v25.65h-4.88l-12.79-15.58v15.58h-5.85V15.39h4.92l12.75,15.56v-15.56h5.85Z"/>
  <path class="cls-4" d="M182.92,41.47c-3.67,0-6.52-1.01-8.56-3.04-2.04-2.03-3.06-4.92-3.06-8.69v-14.35h5.94v14.15c0,4.58,1.91,6.88,5.73,6.88,1.84,0,3.26-.55,4.23-1.67.98-1.11,1.48-2.84,1.48-5.21v-14.15h5.88v14.35c0,3.77-1.02,6.66-3.06,8.69-2.04,2.03-4.9,3.04-8.56,3.04Z"/>
  <path class="cls-4" d="M229.19,15.39v25.65h-4.88l-12.79-15.58v15.58h-5.85V15.39h4.92l12.75,15.56v-15.56h5.85Z"/>
  <path class="cls-4" d="M252.97,41.47c-2.66,0-5.05-.57-7.19-1.71-2.14-1.15-3.81-2.73-5.02-4.75-1.21-2.01-1.81-4.28-1.81-6.81s.6-4.78,1.81-6.79c1.21-2.01,2.88-3.59,5.02-4.73,2.14-1.15,4.53-1.73,7.19-1.73s5.06.58,7.19,1.73c2.13,1.14,3.8,2.72,5.02,4.73,1.22,2.02,1.83,4.28,1.83,6.79s-.61,4.8-1.83,6.81c-1.22,2.02-2.9,3.6-5.02,4.75-2.13,1.14-4.52,1.71-7.19,1.71ZM252.97,36.41c1.51,0,2.88-.34,4.1-1.04,1.22-.69,2.18-1.66,2.88-2.9.71-1.25,1.06-2.67,1.06-4.27s-.35-2.99-1.06-4.23c-.7-1.25-1.66-2.22-2.88-2.92-1.22-.71-2.59-1.06-4.1-1.06s-2.89.35-4.1,1.06c-1.22.7-2.18,1.67-2.88,2.92-.7,1.24-1.04,2.65-1.04,4.23s.34,3.02,1.04,4.27c.69,1.24,1.65,2.2,2.88,2.9,1.22.7,2.59,1.04,4.1,1.04Z"/>
  <path class="cls-4" d="M285.18,41.47c-2.03,0-3.99-.27-5.9-.81-1.89-.55-3.41-1.27-4.56-2.15l2.02-4.48c1.09.81,2.4,1.45,3.92,1.94,1.51.49,3.03.73,4.54.73,1.69,0,2.94-.25,3.75-.75.8-.5,1.21-1.16,1.21-1.98,0-.61-.24-1.11-.73-1.52-.47-.42-1.08-.74-1.83-.98-.74-.25-1.74-.52-3.02-.81-1.95-.46-3.54-.92-4.79-1.38-1.25-.47-2.32-1.22-3.21-2.25-.89-1.03-1.33-2.4-1.33-4.1,0-1.48.4-2.83,1.21-4.04.8-1.21,2.02-2.17,3.65-2.88s3.61-1.06,5.96-1.06c1.64,0,3.23.2,4.79.58,1.57.39,2.94.95,4.1,1.69l-1.83,4.5c-2.36-1.34-4.73-2.02-7.1-2.02-1.67,0-2.9.27-3.69.81s-1.19,1.25-1.19,2.13.46,1.53,1.38,1.96c.92.43,2.31.85,4.19,1.27,1.96.46,3.56.93,4.81,1.4,1.25.46,2.32,1.19,3.21,2.19.89,1,1.33,2.35,1.33,4.06,0,1.47-.41,2.81-1.23,4.02-.82,1.21-2.05,2.17-3.69,2.88-1.64.71-3.63,1.06-5.96,1.06Z"/>
  <path class="cls-4" d="M317.81,41.47c-2.66,0-5.05-.57-7.19-1.71-2.14-1.15-3.81-2.73-5.02-4.75-1.21-2.01-1.81-4.28-1.81-6.81s.6-4.78,1.81-6.79c1.21-2.01,2.88-3.59,5.02-4.73,2.14-1.15,4.53-1.73,7.19-1.73s5.06.58,7.19,1.73c2.13,1.14,3.8,2.72,5.02,4.73,1.22,2.02,1.83,4.28,1.83,6.79s-.61,4.8-1.83,6.81c-1.22,2.02-2.9,3.6-5.02,4.75-2.13,1.14-4.52,1.71-7.19,1.71ZM317.81,36.41c1.51,0,2.88-.34,4.1-1.04,1.22-.69,2.18-1.66,2.88-2.9.71-1.25,1.06-2.67,1.06-4.27s-.35-2.99-1.06-4.23c-.7-1.25-1.66-2.22-2.88-2.92-1.22-.71-2.59-1.06-4.1-1.06s-2.89.35-4.1,1.06c-1.22.7-2.18,1.67-2.88,2.92-.7,1.24-1.04,2.65-1.04,4.23s.34,3.02,1.04,4.27c.69,1.24,1.65,2.2,2.88,2.9,1.22.7,2.59,1.04,4.1,1.04Z"/>
  <path class="cls-4" d="M347.53,20.14v6.79h11.88v4.75h-11.88v9.35h-5.94V15.39h19.4v4.75h-13.46Z"/>
  <path class="cls-4" d="M375.59,20.22h-8.21v-4.83h22.35v4.83h-8.21v20.81h-5.94v-20.81Z"/>
  <path class="cls-3" d="M176.74,53.84c1.63,0,2.84.31,3.67.92.83.61,1.25,1.5,1.25,2.67,0,.66-.18,1.24-.52,1.75-.35.5-.85.89-1.52,1.17.48.17.94.41,1.38.71.43.29.77.68,1.02,1.17.26.47.4,1.05.4,1.73,0,.83-.16,1.52-.48,2.06-.31.54-.72.97-1.23,1.29-.52.31-1.08.53-1.71.67-.61.13-1.23.19-1.85.19h-7.4v-14.31h7ZM176.68,55.96h-4.73v3.73h4.98c.65-.01,1.23-.18,1.73-.5.5-.33.75-.8.75-1.4,0-.67-.27-1.14-.79-1.42-.53-.28-1.18-.42-1.94-.42ZM177.03,61.84h-5.08v4.19h5.19c.89,0,1.61-.17,2.17-.52.57-.34.85-.88.85-1.6,0-.54-.16-.96-.48-1.25-.32-.3-.72-.51-1.21-.63-.49-.13-.97-.19-1.44-.19Z"/>
  <path class="cls-3" d="M215.6,58.32c0,.93-.3,1.79-.9,2.56-.58.77-1.32,1.31-2.21,1.65l3.81,5.65-2.71-.02-3.58-5.31h-4.19v5.31h-2.21v-14.31h7.38c.8,0,1.55.2,2.25.58.69.38,1.26.9,1.69,1.56.44.67.67,1.45.67,2.33ZM210.47,55.96h-4.65v4.75h4.92c.47,0,.9-.11,1.27-.33.39-.23.69-.53.92-.9.23-.38.35-.77.35-1.19,0-.46-.14-.86-.4-1.21-.25-.36-.59-.64-1.02-.83-.42-.19-.89-.29-1.4-.29Z"/>
  <path class="cls-3" d="M248.85,68.15l-1.54-3.44h-7.35l-1.52,3.44h-2.29l6.33-14.31h2.44l6.33,14.31h-2.4ZM242.51,58.9l-1.6,3.69h5.46l-1.67-3.77c-.38-.84-.74-1.74-1.08-2.69-.17.5-.35.99-.54,1.46-.18.46-.37.9-.56,1.31Z"/>
  <path class="cls-3" d="M283.68,53.84h2.21v14.31h-2.15l-10.06-11.13c.08.88.16,1.74.23,2.6.08.85.13,1.7.13,2.56v5.96h-2.21v-14.31h2.13l10.06,11.4c-.08-.68-.16-1.4-.21-2.17-.06-.78-.09-1.55-.1-2.31-.02-.78-.02-1.52-.02-2.23v-4.69Z"/>
  <path class="cls-3" d="M314.7,53.84c1.22,0,2.3.19,3.23.56.93.38,1.71.9,2.33,1.56.63.66,1.09,1.42,1.4,2.29.32.86.48,1.77.48,2.73,0,1.32-.28,2.52-.83,3.6-.56,1.08-1.39,1.95-2.5,2.6-1.11.64-2.48.96-4.1.96h-6.54v-14.31h6.54ZM314.6,66.03c1.22,0,2.21-.23,2.98-.69.78-.46,1.34-1.06,1.71-1.81.36-.76.54-1.61.54-2.54s-.18-1.73-.54-2.48c-.36-.76-.93-1.38-1.71-1.83-.77-.47-1.76-.71-2.98-.71h-4.23v10.06h4.23Z"/>
  <path class="cls-3" d="M343.75,63.78c.71.83,1.44,1.48,2.21,1.94.78.45,1.73.67,2.85.67.59,0,1.17-.07,1.71-.23.55-.17,1.01-.41,1.38-.73.36-.32.54-.72.54-1.21,0-.68-.36-1.17-1.08-1.46-.72-.3-1.74-.55-3.04-.75-1.61-.23-2.9-.69-3.85-1.35-.95-.67-1.42-1.63-1.42-2.9,0-.86.25-1.59.75-2.21.51-.61,1.21-1.08,2.08-1.42s1.84-.5,2.9-.5c1.3,0,2.43.22,3.38.67.96.43,1.71,1.05,2.27,1.85l-1.52,1.56c-.45-.63-1.03-1.13-1.75-1.52-.71-.39-1.52-.58-2.44-.58s-1.76.18-2.4.52c-.64.35-.96.83-.96,1.46,0,.74.34,1.27,1.02,1.58.69.31,1.59.54,2.71.71.73.11,1.44.26,2.13.44.68.18,1.28.42,1.81.71.53.29.94.67,1.25,1.13.32.45.48,1,.48,1.67,0,.92-.24,1.72-.73,2.4-.49.68-1.19,1.21-2.1,1.58-.91.38-1.97.56-3.21.56-1.33,0-2.54-.21-3.6-.65-1.06-.44-1.99-1.16-2.79-2.15l1.44-1.79Z"/>
</svg>