<?xml version="1.0" encoding="UTF-8"?>
<svg id="Ebene_1" data-name="Ebene 1" xmlns="http://www.w3.org/2000/svg" xmlns:xlink="http://www.w3.org/1999/xlink" viewBox="0 0 393.74 59.57">
  <defs>
    <style>
      .cls-1 {
        clip-path: url(#clippath);
      }

      .cls-2 {
        fill: none;
      }

      .cls-2, .cls-3 {
        stroke-width: 0px;
      }

      .cls-3 {
        fill: #fff;
      }
    </style>
    <clipPath id="clippath">
      <rect class="cls-2" width="75.33" height="42.67"/>
    </clipPath>
  </defs>
  <g class="cls-1">
    <path class="cls-3" d="M62.45,31.73l11.76-11.75-14.71-14.71c-6.29-6.29-16.48-6.29-22.77,0L0,42.01l23.63.17,24.64-24.65,14.19,14.19Z"/>
  </g>
  <path class="cls-3" d="M86.79,17.94l-24.34,24.34-14.05-14.05-11.75,11.76,15.3,15.3c5.72,5.72,15.01,5.72,20.73,0l37.17-37.17-23.06-.17Z"/>
  <path class="cls-3" d="M164.17,16.72v25.65h-4.88l-12.79-15.58v15.58h-5.85v-25.65h4.92l12.75,15.56v-15.56h5.85Z"/>
  <path class="cls-3" d="M186.92,42.81c-3.67,0-6.52-1.01-8.56-3.04-2.04-2.03-3.06-4.92-3.06-8.69v-14.35h5.94v14.15c0,4.58,1.91,6.88,5.73,6.88,1.84,0,3.26-.55,4.23-1.67.98-1.11,1.48-2.84,1.48-5.21v-14.15h5.88v14.35c0,3.77-1.02,6.66-3.06,8.69-2.04,2.03-4.9,3.04-8.56,3.04Z"/>
  <path class="cls-3" d="M233.19,16.72v25.65h-4.88l-12.79-15.58v15.58h-5.85v-25.65h4.92l12.75,15.56v-15.56h5.85Z"/>
  <path class="cls-3" d="M256.97,42.81c-2.66,0-5.05-.57-7.19-1.71-2.14-1.15-3.81-2.73-5.02-4.75-1.21-2.01-1.81-4.28-1.81-6.81s.6-4.78,1.81-6.79c1.21-2.01,2.88-3.59,5.02-4.73,2.14-1.15,4.53-1.73,7.19-1.73s5.06.58,7.19,1.73c2.13,1.14,3.8,2.72,5.02,4.73,1.22,2.02,1.83,4.28,1.83,6.79s-.61,4.8-1.83,6.81c-1.22,2.02-2.9,3.6-5.02,4.75-2.13,1.14-4.52,1.71-7.19,1.71ZM256.97,37.74c1.51,0,2.88-.34,4.1-1.04,1.22-.69,2.18-1.66,2.88-2.9.71-1.25,1.06-2.67,1.06-4.27s-.35-2.99-1.06-4.23c-.7-1.25-1.66-2.22-2.88-2.92-1.22-.71-2.59-1.06-4.1-1.06s-2.89.35-4.1,1.06c-1.22.7-2.18,1.67-2.88,2.92-.7,1.24-1.04,2.65-1.04,4.23s.34,3.02,1.04,4.27c.69,1.24,1.65,2.2,2.88,2.9,1.22.7,2.59,1.04,4.1,1.04Z"/>
  <path class="cls-3" d="M289.18,42.81c-2.03,0-3.99-.27-5.9-.81-1.89-.55-3.41-1.27-4.56-2.15l2.02-4.48c1.09.81,2.4,1.45,3.92,1.94,1.51.49,3.03.73,4.54.73,1.69,0,2.94-.25,3.75-.75.8-.5,1.21-1.16,1.21-1.98,0-.61-.24-1.11-.73-1.52-.47-.42-1.08-.74-1.83-.98-.74-.25-1.74-.52-3.02-.81-1.95-.46-3.54-.92-4.79-1.38-1.25-.47-2.32-1.22-3.21-2.25-.89-1.03-1.33-2.4-1.33-4.1,0-1.48.4-2.83,1.21-4.04.8-1.21,2.02-2.17,3.65-2.88s3.61-1.06,5.96-1.06c1.64,0,3.23.2,4.79.58,1.57.39,2.94.95,4.1,1.69l-1.83,4.5c-2.36-1.34-4.73-2.02-7.1-2.02-1.67,0-2.9.27-3.69.81s-1.19,1.25-1.19,2.13.46,1.53,1.38,1.96c.92.43,2.31.85,4.19,1.27,1.96.46,3.56.93,4.81,1.4,1.25.46,2.32,1.19,3.21,2.19.89,1,1.33,2.35,1.33,4.06,0,1.47-.41,2.81-1.23,4.02-.82,1.21-2.05,2.17-3.69,2.88-1.64.71-3.63,1.06-5.96,1.06Z"/>
  <path class="cls-3" d="M321.81,42.81c-2.66,0-5.05-.57-7.19-1.71-2.14-1.15-3.81-2.73-5.02-4.75-1.21-2.01-1.81-4.28-1.81-6.81s.6-4.78,1.81-6.79c1.21-2.01,2.88-3.59,5.02-4.73,2.14-1.15,4.53-1.73,7.19-1.73s5.06.58,7.19,1.73c2.13,1.14,3.8,2.72,5.02,4.73,1.22,2.02,1.83,4.28,1.83,6.79s-.61,4.8-1.83,6.81c-1.22,2.02-2.9,3.6-5.02,4.75-2.13,1.14-4.52,1.71-7.19,1.71ZM321.81,37.74c1.51,0,2.88-.34,4.1-1.04,1.22-.69,2.18-1.66,2.88-2.9.71-1.25,1.06-2.67,1.06-4.27s-.35-2.99-1.06-4.23c-.7-1.25-1.66-2.22-2.88-2.92-1.22-.71-2.59-1.06-4.1-1.06s-2.89.35-4.1,1.06c-1.22.7-2.18,1.67-2.88,2.92-.7,1.24-1.04,2.65-1.04,4.23s.34,3.02,1.04,4.27c.69,1.24,1.65,2.2,2.88,2.9,1.22.7,2.59,1.04,4.1,1.04Z"/>
  <path class="cls-3" d="M351.53,21.47v6.79h11.88v4.75h-11.88v9.35h-5.94v-25.65h19.4v4.75h-13.46Z"/>
  <path class="cls-3" d="M379.59,21.56h-8.21v-4.83h22.35v4.83h-8.21v20.81h-5.94v-20.81Z"/>
</svg>