<?xml version="1.0" encoding="UTF-8"?>
<svg id="Ebene_1" data-name="Ebene 1" xmlns="http://www.w3.org/2000/svg" xmlns:xlink="http://www.w3.org/1999/xlink" viewBox="0 0 389.74 68.36">
  <defs>
    <style>
      .cls-1 {
        clip-path: url(#clippath);
      }

      .cls-2 {
        fill: none;
      }

      .cls-2, .cls-3, .cls-4 {
        stroke-width: 0px;
      }

      .cls-5 {
        clip-path: url(#clippath-1);
      }

      .cls-3 {
        fill: #fff;
      }

      .cls-4 {
        fill: #ffd24b;
      }
    </style>
    <clipPath id="clippath">
      <rect class="cls-2" width="77.26" height="43.25"/>
    </clipPath>
    <clipPath id="clippath-1">
      <rect class="cls-2" x="38" y="17.88" width="75.89" height="43.45"/>
    </clipPath>
  </defs>
  <g class="cls-1">
    <path class="cls-3" d="M64.81,32.36l12.2-12.2-15.26-15.26c-6.52-6.52-17.1-6.52-23.63,0L0,43.03l24.52.18,25.57-25.57,14.72,14.73Z"/>
  </g>
  <g class="cls-5">
    <path class="cls-4" d="M90.07,18.06l-25.26,25.26-14.58-14.58-12.2,12.2,15.88,15.88c5.94,5.94,15.57,5.94,21.52,0l38.58-38.57-23.93-.18Z"/>
  </g>
  <path class="cls-3" d="M160.17,15.39v25.65h-4.88l-12.79-15.58v15.58h-5.85V15.39h4.92l12.75,15.56v-15.56h5.85Z"/>
  <path class="cls-3" d="M182.92,41.47c-3.67,0-6.52-1.01-8.56-3.04-2.04-2.03-3.06-4.92-3.06-8.69v-14.35h5.94v14.15c0,4.58,1.91,6.88,5.73,6.88,1.84,0,3.26-.55,4.23-1.67.98-1.11,1.48-2.84,1.48-5.21v-14.15h5.88v14.35c0,3.77-1.02,6.66-3.06,8.69-2.04,2.03-4.9,3.04-8.56,3.04Z"/>
  <path class="cls-3" d="M229.19,15.39v25.65h-4.88l-12.79-15.58v15.58h-5.85V15.39h4.92l12.75,15.56v-15.56h5.85Z"/>
  <path class="cls-3" d="M252.97,41.47c-2.66,0-5.05-.57-7.19-1.71-2.14-1.15-3.81-2.73-5.02-4.75-1.21-2.01-1.81-4.28-1.81-6.81s.6-4.78,1.81-6.79c1.21-2.01,2.88-3.59,5.02-4.73,2.14-1.15,4.53-1.73,7.19-1.73s5.06.58,7.19,1.73c2.13,1.14,3.8,2.72,5.02,4.73,1.22,2.02,1.83,4.28,1.83,6.79s-.61,4.8-1.83,6.81c-1.22,2.02-2.9,3.6-5.02,4.75-2.13,1.14-4.52,1.71-7.19,1.71ZM252.97,36.41c1.51,0,2.88-.34,4.1-1.04,1.22-.69,2.18-1.66,2.88-2.9.71-1.25,1.06-2.67,1.06-4.27s-.35-2.99-1.06-4.23c-.7-1.25-1.66-2.22-2.88-2.92-1.22-.71-2.59-1.06-4.1-1.06s-2.89.35-4.1,1.06c-1.22.7-2.18,1.67-2.88,2.92-.7,1.24-1.04,2.65-1.04,4.23s.34,3.02,1.04,4.27c.69,1.24,1.65,2.2,2.88,2.9,1.22.7,2.59,1.04,4.1,1.04Z"/>
  <path class="cls-3" d="M285.18,41.47c-2.03,0-3.99-.27-5.9-.81-1.89-.55-3.41-1.27-4.56-2.15l2.02-4.48c1.09.81,2.4,1.45,3.92,1.94,1.51.49,3.03.73,4.54.73,1.69,0,2.94-.25,3.75-.75.8-.5,1.21-1.16,1.21-1.98,0-.61-.24-1.11-.73-1.52-.47-.42-1.08-.74-1.83-.98-.74-.25-1.74-.52-3.02-.81-1.95-.46-3.54-.92-4.79-1.38-1.25-.47-2.32-1.22-3.21-2.25-.89-1.03-1.33-2.4-1.33-4.1,0-1.48.4-2.83,1.21-4.04.8-1.21,2.02-2.17,3.65-2.88s3.61-1.06,5.96-1.06c1.64,0,3.23.2,4.79.58,1.57.39,2.94.95,4.1,1.69l-1.83,4.5c-2.36-1.34-4.73-2.02-7.1-2.02-1.67,0-2.9.27-3.69.81s-1.19,1.25-1.19,2.13.46,1.53,1.38,1.96c.92.43,2.31.85,4.19,1.27,1.96.46,3.56.93,4.81,1.4,1.25.46,2.32,1.19,3.21,2.19.89,1,1.33,2.35,1.33,4.06,0,1.47-.41,2.81-1.23,4.02-.82,1.21-2.05,2.17-3.69,2.88-1.64.71-3.63,1.06-5.96,1.06Z"/>
  <path class="cls-3" d="M317.81,41.47c-2.66,0-5.05-.57-7.19-1.71-2.14-1.15-3.81-2.73-5.02-4.75-1.21-2.01-1.81-4.28-1.81-6.81s.6-4.78,1.81-6.79c1.21-2.01,2.88-3.59,5.02-4.73,2.14-1.15,4.53-1.73,7.19-1.73s5.06.58,7.19,1.73c2.13,1.14,3.8,2.72,5.02,4.73,1.22,2.02,1.83,4.28,1.83,6.79s-.61,4.8-1.83,6.81c-1.22,2.02-2.9,3.6-5.02,4.75-2.13,1.14-4.52,1.71-7.19,1.71ZM317.81,36.41c1.51,0,2.88-.34,4.1-1.04,1.22-.69,2.18-1.66,2.88-2.9.71-1.25,1.06-2.67,1.06-4.27s-.35-2.99-1.06-4.23c-.7-1.25-1.66-2.22-2.88-2.92-1.22-.71-2.59-1.06-4.1-1.06s-2.89.35-4.1,1.06c-1.22.7-2.18,1.67-2.88,2.92-.7,1.24-1.04,2.65-1.04,4.23s.34,3.02,1.04,4.27c.69,1.24,1.65,2.2,2.88,2.9,1.22.7,2.59,1.04,4.1,1.04Z"/>
  <path class="cls-3" d="M347.53,20.14v6.79h11.88v4.75h-11.88v9.35h-5.94V15.39h19.4v4.75h-13.46Z"/>
  <path class="cls-3" d="M375.59,20.22h-8.21v-4.83h22.35v4.83h-8.21v20.81h-5.94v-20.81Z"/>
  <path class="cls-4" d="M167.09,53.84c1.22,0,2.3.19,3.23.56.93.38,1.71.9,2.33,1.56.63.66,1.09,1.42,1.4,2.29.32.86.48,1.77.48,2.73,0,1.32-.28,2.52-.83,3.6-.56,1.08-1.39,1.95-2.5,2.6-1.11.64-2.48.96-4.1.96h-6.54v-14.31h6.54ZM166.98,66.03c1.22,0,2.21-.23,2.98-.69.78-.46,1.34-1.06,1.71-1.81.36-.76.54-1.61.54-2.54s-.18-1.73-.54-2.48c-.36-.76-.93-1.38-1.71-1.83-.77-.47-1.76-.71-2.98-.71h-4.23v10.06h4.23Z"/>
  <path class="cls-4" d="M195.05,58.32c0,.93-.3,1.79-.9,2.56-.58.77-1.32,1.31-2.21,1.65l3.81,5.65-2.71-.02-3.58-5.31h-4.19v5.31h-2.21v-14.31h7.38c.8,0,1.55.2,2.25.58.69.38,1.26.9,1.69,1.56.44.67.67,1.45.67,2.33ZM189.93,55.96h-4.65v4.75h4.92c.47,0,.9-.11,1.27-.33.39-.23.69-.53.92-.9.23-.38.35-.77.35-1.19,0-.46-.14-.86-.4-1.21-.25-.36-.59-.64-1.02-.83-.42-.19-.89-.29-1.4-.29Z"/>
  <path class="cls-4" d="M204.6,53.84h10.63v2.13h-8.42v3.77h7.29v2.15h-7.29v4.15h8.42v2.13h-10.63v-14.31Z"/>
  <path class="cls-4" d="M235.43,68.15l-1.54-3.44h-7.35l-1.52,3.44h-2.29l6.33-14.31h2.44l6.33,14.31h-2.4ZM229.09,58.9l-1.6,3.69h5.46l-1.67-3.77c-.38-.84-.74-1.74-1.08-2.69-.17.5-.35.99-.54,1.46-.18.46-.37.9-.56,1.31Z"/>
  <path class="cls-4" d="M247.91,53.84l5.52,7.63,5.52-7.63h2.13v14.31h-2.21v-6c0-.88.01-1.7.04-2.48.03-.79.09-1.57.19-2.35l-5.04,6.73h-1.35l-4.96-6.71c.09.77.15,1.54.17,2.33.03.78.04,1.6.04,2.48v6h-2.21v-14.31h2.17Z"/>
  <path class="cls-4" d="M283.12,66.19c-.33.32-.8.65-1.4.98-.6.33-1.28.62-2.04.85-.77.22-1.57.33-2.42.33-1.08,0-2.09-.18-3.02-.52-.92-.34-1.72-.84-2.42-1.48-.7-.65-1.24-1.43-1.63-2.33-.39-.9-.58-1.92-.58-3.04,0-1.04.2-2.01.6-2.9.42-.89.98-1.66,1.69-2.31.72-.65,1.55-1.16,2.48-1.52.93-.36,1.92-.54,2.96-.54.84,0,1.65.12,2.42.35.78.24,1.47.54,2.08.92.61.36,1.09.75,1.46,1.17l-1.38,1.71c-.66-.57-1.37-1.03-2.15-1.4-.77-.38-1.62-.56-2.56-.56-.67,0-1.33.12-1.98.35-.64.22-1.21.56-1.71,1-.5.45-.91.98-1.21,1.6-.31.63-.46,1.33-.46,2.13,0,1.16.26,2.12.79,2.9.54.77,1.23,1.34,2.08,1.73.86.38,1.78.56,2.75.56.69,0,1.32-.09,1.88-.27.57-.19,1.07-.43,1.52-.71.44-.28.82-.55,1.15-.83l1.08,1.83Z"/>
  <path class="cls-4" d="M303.69,58.32c0,.93-.3,1.79-.9,2.56-.58.77-1.32,1.31-2.21,1.65l3.81,5.65-2.71-.02-3.58-5.31h-4.19v5.31h-2.21v-14.31h7.38c.8,0,1.55.2,2.25.58.69.38,1.26.9,1.69,1.56.44.67.67,1.45.67,2.33ZM298.57,55.96h-4.65v4.75h4.92c.47,0,.9-.11,1.27-.33.39-.23.69-.53.92-.9.23-.38.35-.77.35-1.19,0-.46-.14-.86-.4-1.21-.25-.36-.59-.64-1.02-.83-.42-.19-.89-.29-1.4-.29Z"/>
  <path class="cls-4" d="M324.28,68.15l-1.54-3.44h-7.35l-1.52,3.44h-2.29l6.33-14.31h2.44l6.33,14.31h-2.4ZM317.95,58.9l-1.6,3.69h5.46l-1.67-3.77c-.38-.84-.74-1.74-1.08-2.69-.17.5-.35.99-.54,1.46-.18.46-.37.9-.56,1.31Z"/>
  <path class="cls-4" d="M334.6,68.15v-14.31h10.67v2.13h-8.46v4.08h7.54v2.13h-7.54v5.98h-2.21Z"/>
  <path class="cls-4" d="M357.29,68.15v-12.19h-4.81v-2.13h11.96v2.13h-4.92v12.19h-2.23Z"/>
</svg>